<?xml version="1.0" standalone="no"?>
<!DOCTYPE svg PUBLIC "-//W3C//DTD SVG 20010904//EN"
 "http://www.w3.org/TR/2001/REC-SVG-20010904/DTD/svg10.dtd">
<svg version="1.0" xmlns="http://www.w3.org/2000/svg"
 width="969.000000pt" height="969.000000pt" viewBox="0 0 969.000000 969.000000"
 preserveAspectRatio="xMidYMid meet">
<metadata>
Created by potrace 1.14, written by Peter Selinger 2001-2017
</metadata>
<g transform="translate(0.000000,969.000000) scale(0.100000,-0.100000)"
fill="#000000" stroke="none">
<path d="M4598 9684 c-2 -1 -48 -5 -103 -9 -55 -3 -111 -8 -125 -9 -14 -2 -54
-6 -90 -10 -36 -4 -76 -9 -90 -11 -34 -6 -76 -13 -130 -20 -111 -15 -443 -89
-565 -126 -285 -86 -531 -182 -790 -309 -634 -312 -1168 -738 -1630 -1301
-203 -246 -438 -618 -583 -919 -130 -269 -186 -413 -290 -740 -25 -77 -98
-372 -107 -427 -3 -22 -8 -50 -10 -63 -18 -88 -43 -253 -51 -330 -3 -25 -7
-58 -9 -75 -25 -173 -25 -816 -1 -965 3 -14 7 -55 11 -92 3 -37 8 -77 10 -90
17 -107 28 -176 31 -193 3 -11 7 -36 10 -55 3 -19 7 -41 10 -49 2 -8 7 -30 10
-50 12 -75 86 -352 130 -486 168 -510 404 -970 713 -1385 47 -63 88 -117 91
-120 3 -3 13 -14 21 -26 17 -25 169 -204 213 -250 241 -255 518 -502 722 -644
198 -138 434 -290 450 -290 2 0 22 -11 43 -25 159 -99 556 -274 835 -366 195
-65 537 -152 676 -172 154 -23 191 -28 208 -32 10 -2 55 -6 98 -10 43 -4 87
-9 96 -10 43 -8 291 -18 453 -18 219 0 450 14 615 38 14 2 45 7 70 10 36 5
245 41 346 61 140 27 529 144 674 202 14 6 50 20 80 32 30 11 64 25 75 30 11
4 45 19 75 32 173 73 639 324 648 349 2 5 8 9 14 9 23 0 335 226 488 354 235
197 502 469 681 692 153 193 330 453 436 644 73 130 89 161 113 210 60 120
109 229 140 305 18 44 38 94 45 110 62 146 191 569 219 720 3 17 16 89 30 160
14 72 27 153 30 180 4 28 8 59 10 70 2 11 7 54 11 95 4 41 9 82 10 91 24 122
23 675 0 899 -16 145 -31 264 -41 315 -3 11 -6 34 -8 50 -8 53 -24 135 -51
255 -95 426 -253 842 -474 1254 -93 172 -280 460 -383 591 -4 6 -38 48 -75 95
-510 650 -1252 1198 -2028 1498 -130 51 -412 144 -470 156 -11 3 -63 16 -115
30 -53 14 -107 27 -120 29 -14 3 -36 8 -50 11 -14 3 -36 8 -50 10 -14 2 -36 7
-50 10 -14 3 -38 7 -55 10 -16 2 -57 9 -90 14 -33 6 -84 14 -114 17 -30 4 -61
8 -70 10 -9 1 -54 6 -101 10 -47 3 -103 9 -125 12 -42 5 -592 12 -597 7z"/>
</g>
</svg>
